<svg xmlns="http://www.w3.org/2000/svg" viewBox="0 0 2000 2000"><defs><style>.cls-1{fill:#141106;}.cls-1,.cls-3,.cls-6{stroke:#000;stroke-miterlimit:10;stroke-width:2px;}.cls-2{fill:#fff;}.cls-4{opacity:0.25;}.cls-5{fill:#202020;}.cls-6{opacity:0.12;}</style></defs><g id="Layer_2" data-name="Layer 2"><path class="cls-1" d="M910.54,1509.05c12.92-75.72-3.43-312.42-268.69-300.65-140.17,6.23-254.45,161.6-250,301.84s121.67,250.35,261.91,245.94S886.94,1647.36,910.54,1509.05Z"/><path class="cls-2" d="M742,1516.84c8-84.64-39.18-137.76-142.75-131.42-75.66,4.63-133.77,72.27-131.64,140s61,126.93,136.7,129.4C676.79,1657.23,733.66,1604.17,742,1516.84Z"/><path class="cls-3" d="M1313.3,735.66c6.67-78.23-30.29-317.89-299.42-283.14C871.66,470.88,768.6,638.91,785.12,781.36s145.38,244.53,287.82,228S1301.12,878.54,1313.3,735.66Z"/><path d="M1695.57,1491.12c6.56-77-29.81-312.88-294.7-278.68-140,18.07-241.42,183.45-225.17,323.66s143.1,240.68,283.3,224.42S1683.59,1631.75,1695.57,1491.12Z"/><path d="M1695.57,1491.12c3.21-52.85-8-106.67-30.75-154.39-22.24-46.19-58.29-84.58-105.36-105.73-36.25-16.41-76.64-22.35-116.22-21.29a371,371,0,0,0-46.14,3.94c-140.61,22.79-233.83,183.27-220.77,318.61,14.08,148.07,155.6,253.35,301.52,225,58.82-10.27,113.49-42.09,150.69-88.92,40.47-50,61.59-113.56,67-177.17Zm0,0c-5.35,63.63-26.41,127.26-66.82,177.34-37.22,47-91.82,79.07-150.75,89.55-146.77,29-289.25-76.47-303.59-225.55-13.25-136.33,80.82-297.49,222.51-320a371.81,371.81,0,0,1,46.3-3.79c39.7-.92,80.19,5.18,116.49,21.76,47,21.29,83.15,60,105.3,106.18,22.72,47.78,33.84,101.63,30.56,154.49Z"/><path class="cls-2" d="M1526.44,1529.8c8.08-85.14-39.42-138.58-143.6-132.2-76.11,4.66-134.57,72.7-132.42,140.88s61.33,127.69,137.51,130.17C1460.89,1671,1518.1,1617.66,1526.44,1529.8Z"/><path class="cls-2" d="M1172,768.92c8.22-86.51-40-140.8-145.89-134.32-77.33,4.74-136.72,73.86-134.55,143.14S953.89,907.46,1031.29,910C1105.42,912.4,1163.54,858.18,1172,768.92Z"/></g><g id="Layer_5" data-name="Layer 5"><g class="cls-4"><path class="cls-5" d="M659.77,1186.43c.21.31.93.63,1,.16l-1-.94Z"/><path class="cls-5" d="M663.4,1185.08a3.4,3.4,0,0,0-2.17-2.2c.83,1.1.31.94,1.33,2.19-.09.46-.76.45-1.14.14.21.31-.6.45,0,1.08,1.18,0,1.59-.59,1.25-1.69C663,1184.61,663.21,1184.92,663.4,1185.08Z"/><path class="cls-5" d="M687.31,1148.49l-.28.17A.43.43,0,0,0,687.31,1148.49Z"/><path class="cls-5" d="M701.65,1125.55a.31.31,0,0,0,.09.4C701.76,1125.74,701.77,1125.57,701.65,1125.55Z"/><path class="cls-5" d="M705.25,1122.31a1.37,1.37,0,0,0-.22.19C705.19,1122.47,705.3,1122.41,705.25,1122.31Z"/><path class="cls-5" d="M687.31,1148.49l.73-.41C687.69,1147.82,687.57,1148.24,687.31,1148.49Z"/><path class="cls-5" d="M663.7,1178.27a1,1,0,0,0,.1.52,3.91,3.91,0,0,1,.07-.39Z"/><path class="cls-5" d="M682.19,1159.32l-.11.19c.1.13.23.27.37.43Z"/><path class="cls-5" d="M677.73,1167.31c.15-.16-.79-.79-1.17-1.1.34.33.45.57.44.77A3.17,3.17,0,0,0,677.73,1167.31Z"/><path class="cls-5" d="M668.67,1178.81v.3C668.66,1179,668.68,1178.91,668.67,1178.81Z"/><path class="cls-5" d="M685.72,1153.79a1.56,1.56,0,0,0,.39.14A1.07,1.07,0,0,0,685.72,1153.79Z"/><path class="cls-5" d="M808.18,928.89l.17.1C808.28,928.88,808.22,928.83,808.18,928.89Z"/><path class="cls-5" d="M818.36,922.57l0,.15.53.35Z"/><path class="cls-5" d="M710.77,1115.75l0,0C710.73,1116,710.78,1115.91,710.77,1115.75Z"/><path class="cls-5" d="M749.39,1048.45c-1.31.25-.39-1.89-2-1.31C747.81,1047.25,748.27,1049.06,749.39,1048.45Z"/><path class="cls-5" d="M664,1178.14a2.68,2.68,0,0,1,.18-.33A.57.57,0,0,0,664,1178.14Z"/><path class="cls-5" d="M747.37,1047.14h0l-.16.07Z"/><path class="cls-5" d="M720.06,1098.62a2.06,2.06,0,0,0-.52-.08A.92.92,0,0,0,720.06,1098.62Z"/><path class="cls-5" d="M711.33,1110.32l.31-.24A.74.74,0,0,0,711.33,1110.32Z"/><path class="cls-5" d="M722.51,1091.32c.18-.12.34-.1.35-.4h-.16C722.78,1091.08,722.78,1091.22,722.51,1091.32Z"/><path class="cls-5" d="M726.48,1084.56h-.27l-.07.25Z"/><path class="cls-5" d="M796.57,949.7a4.15,4.15,0,0,1,1,.2C796.87,949.6,797.21,948.46,796.57,949.7Z"/><path class="cls-5" d="M664.25,1178.59c-.22-.19-.31-.31-.3-.45a1.29,1.29,0,0,0-.08.26A.72.72,0,0,0,664.25,1178.59Z"/><path class="cls-5" d="M715,1086.55l.77-1A4.41,4.41,0,0,0,715,1086.55Z"/><path class="cls-5" d="M768.19,998.27l0-.32A.26.26,0,0,0,768.19,998.27Z"/><path class="cls-5" d="M717.53,1082.29a2,2,0,0,0,1-.21,1,1,0,0,0-.18-.27Z"/><path class="cls-5" d="M797.63,949.9h0Z"/><path class="cls-5" d="M799.49,941.48c-.63,1,1,1.21,1.57,1.86-.36,1.43-1.27,0-2.17,0-.11,1,.72,2.24.33,2.78-.23-.08-.37,0-.56-.3.54,1.4-1.36,2.42-.64,4.11a1.13,1.13,0,0,1-.39-.07,7.17,7.17,0,0,1,1.84.89c-.25.47.3,1.32-.63,1,.19-.26-.14-.48-.32-.77l.08.7c-1.45-.28,0-.9-.91-1.43-.16,1.17.18,2.85-.58,3.37-1.26-.54.6-1.92-1-1.57l1.1-.85c-2.34-.24.53-.6-1.91-1-1.2,1.26-.36,2-1.56,3.24.46.72,1,.46,1.48,1.17-.05,2.76-3.9-.1-3.24,2.35.55.85,1.94,1.87.52,2.5l-1.11-1.15c-1,1.34,1.43,1.93-.33,2.89-.37-.57.22-1.38-.07-1.25-1.61.34.35,1.12-.08,1.86l-1.26-.54c-.71,1.61-.83,3.77-1.6,5.57-.3-.3-.5-.8-1.08-.62-.66,2.45-2.79,4.41-4.68,6l.56,1.37c-.12.17-.66.07-.74-.24-.85.56.62.41.79,1-.19.49-.93.25-1.06-.21,0,1.9-.5,5.06-2.45,5.9l-.13-.47c-1.08.91,1.32,2.52-.25,3l-.06-.3c-1.9,2.22-2.59,5.52-5.24,6.52,1.25,1.21-2.09,2.08-.15,3.43-1.85.83-2,.21-3.82,1.81-.41.48.8,1.54.62,2.33l-1.07-.61.59,1.55-1.56-.27-.09.78a1,1,0,0,1,1.07,0c-.08,1.25-2.12,1.93-2.68,1.63l-.45,2.82c-.4-.3-.32-.77-.41-1.24.36,1.86-1.25-.43-.92,1.27.33,0,.59.45.79.61-1,.18-1.73,1.44-2,2.54l-.62-.61c-1.19,1.59-1.76,3.79-2.89,5.68.74-.48,1.92.43,1.71,1.06l-1.25-.44c.48.77.76-.34,1.18.91-.55.63-1.56-.28-1.69-.9l-.11,1.09c-.37-.14-.43-.45-.82-.75.49.76-2,.83-1.1,2l-.36-.15c-1.13,1.9-1.25,3-2.11,4.58,1,.6.38,1.08.89,2-1,1-2.48,1.78-3.21,3.2-.08,1.25.66.77,1,1.54-.93-.45-1.65,1-1.87-.11a15.25,15.25,0,0,0-1.57,4.71c.5,0,.8-.17,1,.14-.08.46-.88.64-1.27.34l0-.16c0,3.12-5.75,3.89-5,6.84l0-.16-.18,2.5c-.67.8-.35-.93-1.28-.59.24,3-2.15,3.17-2.18,5.46-3.39-.2-2.59,4.83-5.31,5.64l.67.26c.33.82-.68.35-1,.61.51.23.85-.18,1,.31-1.57,4.36-5.66,7.58-8.58,11.28-1,1.38,2.68,2.7.12,3.7l-.83-1.2c-.38,3.78-3.62,6-4.17,9.64-.16-.33-.5-.53-.33-.81-1.19.12-1.37,2.25-.7,2.65-.35.41-.68-.25-1.18-.17-.86.33.14,2.16-.87,2-.17,0-.17-.33-.17-.48.17.63-1.2,1.81,0,2-1.1.82-.8,2.33-1.88,2.87.73,1.2-1.61,1.57-.21,2.64-1.51-1-2.39,1.17-2.06,2.29-.33-.5-.84.32-1.33-.34-.44.8-.58,1.7.3,2-2.72.35-.21,3.8-3.08,3.21a46.12,46.12,0,0,1-2.12,7.66c-1.51-1,1.21-2.42-.47-3.29-.54,2.37.12,4.31-1.42,6.07-.51.39-.5-.69-.67-1-.53,2.37-2.41,3.78-2.61,6.05-.14-.09-.18-.37-.19-.62-.16.38-.71.68,0,1v-.45c1.35,0,1.32,2.65,1.83,3-1.68-1.79-1.54,1.45-3.55-1a1.14,1.14,0,0,0,.67,1c-.34.27-.68.21-1-.45-.36,1.48.66,1.48,0,2.6-.34-.2-.33-.51-.67-.86.33,1,.66,1.93-.19,2.72-.18-.18-.51-.22-.34-.51-.86,1.71.13,3.86-1.58,5.29-1.17-1.41-.85.32-2.19-.34l-.19,1.2.85,0c-.52.84,0,2.14-.88,2.63l-.16-1-.69,1.74,1-.62c.16,1.26,1.68.87.66,1.79,0-.3-.52.85-1.54.84h0c.16.66.34,1.35-.35,1.79-.51-.08-1.35-1-1.69-1,.84,1-.87,2.17,0,3.37a2.2,2.2,0,0,0-1-.77l.67.87c-.51.23-.68.21-1.18-.18-.86,1.1,1.85.59.32,1.58,0-.15-.17-.17-.17-.48-1.2,1.2-1,3.06-2.24,4.1-1.53-.37.35-1.32-1-1.52-.87,2-.73,4.79-2.11,6.43l.35-.26c1.68,1.33-1.7.82-1.38,2.25,0-.31-.84-.89-.67-.71-1,1.07-1,2.8-1.58,5l-.33-.51c-.85.49-1.38,1.79-2.06,2.45.34.51,0,.92.84,1-4.11.86-1.3,5.49-4.8,6.34.14-.26-.05-.86-.17-.65l-.66,2.1c.89.32.63,0,1.48,0a1.74,1.74,0,0,1,.12,1.7c0-1.14-1.28-.75-1.93-.65.27.08.47.37.74.48-2,.13,1.51,1.11-.22,1.86l-.38-.32c-.07.62.21,1.4-.22,1.86-1.05-.32-.12-.78-.86-1.26-.39.78.88,2.5-.43,2.63-.07-.46.19-.92.12-1.39-1.51.1-1.29.35-1.78.79l0,0-1.23,1,.48-.14c1.86,2.34-.67,2.15.16,4.33-.77-2.09-.74-.7-1.73-1.41-.48.15-1.09.44-1.3.13.49,1.09-1.25.6-.51,2.17-.36-.16-.4.61-1.17,0-.19.93.69.16,1.08.48.44,1.86-3,2-2.47,4.61-.22,1.86.75,2.8.51,4.5-.81.14-1-1.1-1-1.1a2,2,0,0,0-1.2,2c-.21-.32-.54-.32-1-.33-.24.62,1,1.1.07,1.55a6.21,6.21,0,0,1-1-1.35c-.08.84.16,1.87.06,2.73-.69-.16-.64-.93-.88-1.4-.19.93-.65,2.31.14,3.1l.62-.3c-.12.3-.88-.33-.93-.63-.34-1.09.88-.77,1.24-.61l-.07.62c2.27.65.84-2.16,1.54-3.08l1.19,1.26-.6-1.71c.5,0,1.39.33,1.32.94,1.12-.29-.14-.93,1-1.07.17,0,.22.08.24.17l0-.94c.22.31,1.08.48.62.78,1.56-.75.1-2.63,1.46-2.45l0,.15c.53-2-1-.79-1.43-2.8l3.1.66-.95-.79a.54.54,0,0,1,.81-.15c-.33-1.08-.52-.15-1-.94,1.46-.29.94-2.62,2.73-1.82-.62-.78-1.1.45-1.12-.79,2,.8.31-1.23,1.6-1.53.79.79-.14,1.24,1.15,1-1.3-1.4,1.24-1.32,1.33-2.16-1.24-.76.31-1.73.55-3.08.38.31,1.91-1.68,3-2.44l.2.16c-1.15-.95-.29-1.87-.1-2.79.74.47,1,.79,1,1.41l.42-.73a1.42,1.42,0,0,1-.25-1.32l.84.74c.51-1,0-2.6,1.39-3.47-.84-.59-3-.46-2.86-2.12.51.23,1.35.66,1.35,1.12,0-.15-.16-.63.17-.74l.5,1c.68-.36-.5-.69-.16-1.1.68.41.68,0,1.19.33,0,.16-.52.23-.35.56a2.31,2.31,0,0,1,1.82-.72c-.41-.18-.92-.53-.78-1,.51-1,1,.15,1.69-.21-.33-.51.52-.84-.49-1.45.17-.28.68-.05,1,0-.16-.76,1.24-2.41-.17-2.48l-.15.08s0-.06,0-.1h0c-.05-2.24,2.58-3.07,3.1-5l.34.2c.18-1.19,1-2.29.71-3.41.17-.29,1-.32,1.36,0,.18-.9-.16-1.2,1-1.94.16,1.09.68.05,0,1,.86-.8,1.53-.69,1.21-2.27.67.86,1.53-.08,1.54-.7l-1,.31a4,4,0,0,1,.87-1.41l1,.93c2.55-1.15-.29-5,2.93-5.08-.49-1-1.19.74-1.86-.28.69-.82,2.89-.8,3.06-1.08,1.37-.87-1-2.14.21-3.19-.51-.07-1.69-.56-1.51-1.75.69-.82,2.38-.11,2.37.66-.1.23-.29.26-.42.17,0,.38-.08.87.58.77l-.34-.36c.68-.2,1.37-1.48,1.87-.79,0-.91-.5-.69-1-.3,1.28-.82,1.09-1.81,2.19-2.77-.34,0-.92,0-.8-.24,1.54-1.46-.33-1.23.2-2.53,1-.31,1.34,1.12,1.52-.39.86-.48,1.18.49,1.34,1-.14-1.55,1.72-1.73,2.23-2.27v.77a1.8,1.8,0,0,1,.34-1l-1-.16c.34-.25.51-.53.85-.33-.33-.66-1.52-.53-1.84-1.65.68-.21.36-1.64,1.53-1.15-1.2,1.2,1.19.48.66,1.78a1.1,1.1,0,0,1,.52-.84c.15,0,.19.18.2.31,1.77-.78-.86-1.34,0-2.73.51.53,1.35.35,1.36,0-.35.56-1.18-.33-1.35-1.13,1-.62.23-1.18.56-1.62l-.54.4c-.51-.54-.16-.94,0-1.68.51.22,0,.76.34.66-.67-1.33,2-.92,1.89-2.32.67-.21,1.17.63,1.69.4-.16-1.55,1.53-.68,1.54-2.21-1-.16-.84,0-1.17-1.26l-.53,2.22-.49-1.91c-.34.56-.18,1.5-.52,1.76-.34-1-.17-.79-1-.92,1.69,0,.19-2,1.55-2.37l2,1.23c1.7-.82.37-3,1.91-4.47l-.69.35c-.67-.71.53-1.15.53-1.91.65.46,1.11.25,1.68.25-.53-.26.8-1.25-.47-2.21l1.36-.26c1.2-1.2-1-2.75,0-4,.5.85,1.35.51,1.34,1.73.27-.45.64-.78.17-1.07.58,0-.17-1.8.72-1.83-.19-.37-.86-.85-.51-1.33a.7.7,0,0,1,.34.2c-.34-.2,0-1.07-1-1.07,3-.15,2.15-4,4.69-4.15a24.28,24.28,0,0,1,1.32-3.38c.17.18.34.21.17.33,1.36-.87-1.51-1.91,0-2.91,1.53-.07.15,1.1.84.9,2.35,1.12.69-1.89,2.56-2.07v.31c1.19-.28.19-2.27,1-3.37a.78.78,0,0,0,.33.21c-.66-1.49-.13-3.25.22-4.58.67.87.16.79,1.18,1.1.17-.58-1.52-.69-1.17-1.86.68,0,1.53-.54,2.54-.08l-.52,1c1.52.22.69-1.28,1.21-1.66l.5.38c.69-1.58-.65-2.4.38-3.93l-.5-.07c-.83-1.66,1.18-.29.69-1.74l1.52.54a16.45,16.45,0,0,1,.21-4c.67,1.17.48,2.68.64,3.78.34-.57,1-2,.53-2.68,0,.3.16.79-.18.89a3.57,3.57,0,0,1,0-3.67c2.52,1.75,2.4-2.56,4.94-2.17.2-2.58,2.75-3.73,4-6.16-2.54-.38.34-.71-1.85-1.81.19-.62.34-.81.51-.77l2.23-.91c.84,0,.16.79.66,1,.86-1.1,1.19,0,2.21-.43-.85-.29-.84-1-.15-1.56l-1.53.38c-.15-2.32,2.61-.39,2.48-2.72l.36.92c.11-1.09,1.87-3.17.68-5,.33,0,1,.13,1,.6,1.47-1.9.89-5.63,2.87-6.62l.43.46c.07-.47-.58-1.23.22-1.41.2.15.43.46.56.3-.06-.31-.3-1.55.3-1.88l.32.77c1.85-1.6.4-3.9,1-5.79,1.52.89,2.94-.39,3.65-1l.19.16c1.56-2.22,1.08-4.71,1.75-7.22,2.44-.37,3.36-4.14,5.56-5.75-.47.17-1.15-.75-1.08-1.22.6-.33-.23-2,1.11-1.12l-.13.16c1.59.43,1.84-.83,2.35-1.62l-1.74-1.2c3.9-.57,2.3-6.14,5.35-5.9-.15-.78.23-1.41.07-2.19l1,.6a11.79,11.79,0,0,0,2.43-3.8l.48.77c.65-1-2.08-2.91-1.6-3.85l1.62.58c1-1.74,3.3-2.74,3-5.22.2.15.59.45.49.76.51-.79,2.83-2.56.66-3.44,1.31.74,1.17-1.71,1.15-3l.87.71c-.76-1.51-1.08-1.73-.77-3,.27-.19.9.22.45.42,1-.57-.51-1.21.62-2l.38.75c.6-.84.23-1-.2-1.88-.05-.79,1.24-1.55,2.19-1.17-.46-.43-.88-1.34-.32-1.72a.75.75,0,0,1,.5.59c1.54-1.11.19-2.88,1.74-3.35a1.1,1.1,0,0,0,.68.16,9.79,9.79,0,0,1-1.36,2c.89.52,1.61-.35,2.38,1.13-.21-1.16-.89-3.33.08-4a1.41,1.41,0,0,1,.37.06l0,.16a.67.67,0,0,0,.2-.68,2.11,2.11,0,0,0,.72-.62c.8.32,1-.86,1.36-1.32-1-.53-.47-1.06-1.61-1,.11,0,.06.16-.09.5a.59.59,0,0,0,0,.26l-.06-.08c-.16.33-.38.75-.64,1.23-.27-.67-.45-1.31.4-1.52-.48-.61-1-1.26-1.17-1.59,1.74.14,3.21-.69,4.14-.37.32-1.78,1.67-3.65.39-5.64,0-.55.8-.17,1.18-.16,0,.35-.16.62,0,.9,0-1.1,1.26-2.56.11-3.51,1.18-.71.82,1.28,1.46-.28l.27.42c3.7-1.63-.54-6.5,3.91-8.1-.29.12-.42.19-.66.11,3.25-2.9,3.25-8,7.14-10.45,1-.79.21-1.38-.05-2.35l1.17.39-.58-1.75c0-2,4.06-1.06,3.5-3.92l-.84-.17c.53-.6.84-2.38,1.58-1.79-.09-.14-.6-.65-.08-.7l.56.3,0-2.2c1.15-1.06,2,1.47,3.25-.34.2-.82-.42-2.92-.94-2.87a1.07,1.07,0,0,1-1.32.22l.09-.81c-1.53-1.06-2.89-2.51-4.93-1.61l.34,1.67-1-.11.49-.94c-1,.08-.59.8-.36,1.43a1.54,1.54,0,0,0-1.13,0l.91,2c-.71-.24-1-1.21-1.74-.7.42.92,1.7.35,1.67,1.45-1,.1-1.54-.41-1.27.57a.89.89,0,0,1-.69-.79c.17.84-.64,1.57.05,2.35-1.22,0-.85,2-2.34,1a3.3,3.3,0,0,1,.4,2.2c-1.28-2-1.21,1.8-3,.42,1.24,1.63-.71,2.87-.5,4.6-.09-.15-.28-.43-.13-.49-.54.6-1.14.5-1.71.75,1.3.88,1,2.12,1.49,3.17-1.79.06-1.29-1.43-2.69-1.91,1.12.6.25,2.08,1.32,2.33-1.17.16-.71.32-2,0,1.62,1.1-.06.75.67,1.89-1.37.42-1.72-.7-1.8.61C799.56,942.72,799.49,941.48,799.49,941.48Zm-11.13,25.61h0l.24-.53Zm-1.17,2a5,5,0,0,0,.55-.85c.38.13.68.41.54.6C788.12,968.62,787.65,969,787.19,969.11Zm9.22-.3c0,.4-.3.39-.53.32a4,4,0,0,0,.21-.62l-.09-.11A2.26,2.26,0,0,1,796.41,968.81Z"/><path class="cls-5" d="M795.47,967.49c0-.06,0-.11,0-.17a1.61,1.61,0,0,0-.33.06l.24.29Z"/><path class="cls-5" d="M687,1148.69l0,0a.57.57,0,0,1-.19,0A.34.34,0,0,1,687,1148.69Z"/><polygon class="cls-5" points="769.03 995.75 769.28 995.89 769.17 995.59 769.03 995.75"/><path class="cls-5" d="M677.16,1157.79a.56.56,0,0,0-.34,0A.76.76,0,0,0,677.16,1157.79Z"/><path class="cls-5" d="M674.13,1162.44l-.74.47A3.07,3.07,0,0,0,674.13,1162.44Z"/><path class="cls-5" d="M671.49,1165.83a2.37,2.37,0,0,0,.37.32h0Z"/><path class="cls-5" d="M704.7,1106.76a.51.51,0,0,0,0-.17C704.74,1106.15,704.68,1106.42,704.7,1106.76Z"/><path class="cls-5" d="M696.74,1125.47a3.65,3.65,0,0,1-.13-.83C696.35,1124.91,696.19,1125.14,696.74,1125.47Z"/><path class="cls-5" d="M714.94,1086.66h0l.07-.12Z"/><path class="cls-5" d="M697.1,1123.84a.86.86,0,0,0-.49.8C696.82,1124.42,697.1,1124.18,697.1,1123.84Z"/><path class="cls-5" d="M661.68,1181.49l-.14.16a.33.33,0,0,1,.14.11Z"/><path class="cls-5" d="M661.68,1181.76v.26C661.74,1181.93,661.77,1181.85,661.68,1181.76Z"/><path class="cls-5" d="M661.68,1182.58V1182C661.6,1182.17,661.46,1182.32,661.68,1182.58Z"/><path class="cls-5" d="M665,1176.89l-.32-.26A1.17,1.17,0,0,0,665,1176.89Z"/><path class="cls-5" d="M665.76,1175.36c-.29.3-1.27.44-1.34,1.06l.25.21C664.29,1176.09,666.16,1176,665.76,1175.36Z"/><path class="cls-5" d="M673.73,1171.74l-1,1.08c.5,0,1.18,0,.93.63C675.69,1172.54,672.63,1173.28,673.73,1171.74Z"/><path class="cls-5" d="M676.53,1168.22c-.21.77.55.32.74.48C677.18,1168.07,677.15,1167.92,676.53,1168.22Z"/><path class="cls-5" d="M692.85,1140.48l.85.58C693.87,1140.48,693.36,1140.86,692.85,1140.48Z"/><polygon class="cls-5" points="691.41 1132.49 690.57 1132.67 691.24 1133.38 691.41 1132.49"/><polygon class="cls-5" points="699.54 1133.06 699.53 1133.35 699.72 1132.31 699.54 1133.06"/><path class="cls-5" d="M726.63,1086.27l-1.18-.48C725.44,1086.25,726.62,1087,726.63,1086.27Z"/><path class="cls-5" d="M737.36,1065.5c.67.1,1.35-.26,1-.92C738,1065,737.35,1065.19,737.36,1065.5Z"/><polygon class="cls-5" points="774.61 1006.21 774.73 1006.82 774.88 1005.88 774.61 1006.21"/></g><g class="cls-4"><path class="cls-5" d="M1412.72,1189.12c.37,0,1-.5.64-.81l-1.3.4Z"/><path class="cls-5" d="M1413.31,1185.29a3.4,3.4,0,0,0-3,.83c1.36-.19,1,.19,2.56-.1.36.31,0,.89-.43,1.07.37,0,.1.75.94.53.59-1,.25-1.68-.87-1.91C1412.7,1185.42,1413.08,1185.38,1413.31,1185.29Z"/><path class="cls-5" d="M1393,1146.61v.33A.53.53,0,0,0,1393,1146.61Z"/><path class="cls-5" d="M1379.87,1122.93a.33.33,0,0,0,.4.12C1380.1,1122.93,1380,1122.83,1379.87,1122.93Z"/><path class="cls-5" d="M1378.79,1118.21a2,2,0,0,0,.06.28C1378.9,1118.34,1378.91,1118.21,1378.79,1118.21Z"/><path class="cls-5" d="M1393,1146.61v-.83C1392.55,1146,1392.86,1146.26,1393,1146.61Z"/><path class="cls-5" d="M1407.5,1181.72a.88.88,0,0,0,.5.16,2.34,2.34,0,0,1-.31-.24Z"/><path class="cls-5" d="M1399.93,1156.35l.11.19a3.8,3.8,0,0,0,.56-.12Z"/><path class="cls-5" d="M1404.74,1164.13c-.06-.2-1.07.31-1.53.49a1.08,1.08,0,0,1,.89,0A3.65,3.65,0,0,0,1404.74,1164.13Z"/><path class="cls-5" d="M1410.39,1177.64l.26.15A3,3,0,0,0,1410.39,1177.64Z"/><path class="cls-5" d="M1396.82,1150.58a1.68,1.68,0,0,0,.3-.28A1.15,1.15,0,0,0,1396.82,1150.58Z"/><path class="cls-5" d="M1259.79,934.24l.17-.1C1259.84,934.15,1259.76,934.17,1259.79,934.24Z"/><path class="cls-5" d="M1259.21,922.27l.13.1.56-.29Z"/><path class="cls-5" d="M1375.75,1110.19s0,0,0,0C1376,1110.36,1375.89,1110.27,1375.75,1110.19Z"/><path class="cls-5" d="M1335.7,1043.73c-.42,1.27-1.84-.57-2.13,1.13C1333.89,1044.53,1335.69,1045,1335.7,1043.73Z"/><path class="cls-5" d="M1407.51,1181.44a2,2,0,0,1-.2-.31A.54.54,0,0,0,1407.51,1181.44Z"/><path class="cls-5" d="M1333.57,1044.86h0l0,.17Z"/><path class="cls-5" d="M1365.29,1093.75a1.67,1.67,0,0,0-.32.42A1.06,1.06,0,0,0,1365.29,1093.75Z"/><path class="cls-5" d="M1371.27,1107.07l-.06-.39A.84.84,0,0,0,1371.27,1107.07Z"/><path class="cls-5" d="M1360.11,1088.06c0-.21.07-.35-.19-.5a.5.5,0,0,0-.08.14C1360,1087.71,1360.15,1087.78,1360.11,1088.06Z"/><path class="cls-5" d="M1356.13,1081.31a1.41,1.41,0,0,0-.13.24l.18.18Z"/><path class="cls-5" d="M1272.34,954.5a4.12,4.12,0,0,1,.68-.82C1272.4,954.19,1271.57,953.34,1272.34,954.5Z"/><path class="cls-5" d="M1408.05,1181.4c-.27.1-.43.12-.54,0l.18.2A.78.78,0,0,0,1408.05,1181.4Z"/><path class="cls-5" d="M1352.3,1092.28l-.49-1.15A4.14,4.14,0,0,0,1352.3,1092.28Z"/><path class="cls-5" d="M1301,1002.91l-.27-.18A.26.26,0,0,0,1301,1002.91Z"/><path class="cls-5" d="M1349.79,1088a2.06,2.06,0,0,0,.32-1,1,1,0,0,0-.33,0Z"/><path class="cls-5" d="M1273,953.67h0Z"/><path class="cls-5" d="M1266.57,948c.57,1,1.53-.25,2.39-.46,1.08,1-.61,1.11-1,1.91.78.57,2.29.46,2.58,1.06-.19.17-.2.32-.54.35,1.49.21,1.46,2.36,3.29,2.55a1,1,0,0,1-.25.31,7,7,0,0,1,1.66-1.17c.3.44,1.31.38.58,1-.14-.3-.49-.12-.83-.1l.64.27c-.94,1.13-.79-.42-1.68.1.94.71,2.57,1.22,2.66,2.14-1.09.84-1.38-1.45-1.86.12l-.21-1.37c-1.35,1.93-.27-.75-1.78,1.19.52,1.66,1.55,1.28,2.07,2.94.84-.05.9-.67,1.74-.73,2.39,1.39-2,3.37.47,4,1-.06,2.59-.78,2.44.77l-1.54.41c.7,1.49,2.38-.31,2.36,1.69-.67,0-1.09-.85-1.12-.55-.48,1.58,1.15.24,1.58,1l-1.08.84c1.07,1.4,2.89,2.56,4.09,4.11-.4.11-.94,0-1.07.64,1.83,1.76,2.5,4.58,3,7l1.47.18c.09.19-.26.6-.57.52.08,1,.66-.33,1.28-.19.34.41-.23.94-.7.83,1.68.9,4.19,2.9,4,5l-.47-.11c.26,1.39,2.84.08,2.52,1.7l-.3-.1c1,2.74,3.56,4.94,3.15,7.74,1.67-.5.8,2.84,2.93,1.81-.18,2-.78,1.82-.28,4.22.22.59,1.74,0,2.34.58l-1,.64,1.64.24-1,1.23.63.46a1,1,0,0,1,.5-1c1,.68.65,2.79.12,3.14l2.24,1.76c-.46.2-.83-.1-1.28-.24,1.81.58-1,.88.66,1.41.16-.29.69-.29.92-.39-.32.94.42,2.21,1.25,3l-.84.25c.81,1.81,2.45,3.38,3.56,5.29-.06-.89,1.3-1.48,1.75-1l-1,.89c.91,0,.08-.84,1.37-.6.29.79-1,1.23-1.6,1l.89.64c-.3.24-.6.14-1.06.34.91,0-.24,2.16,1.27,2l-.31.24c1.11,1.92,2,2.55,3,4.07,1-.54,1.13.19,2.18.2.36,1.32.34,3,1.23,4.36,1,.68,1-.2,1.82-.11-.84.59,0,1.91-1,1.58a14.89,14.89,0,0,0,3.36,3.66c.22-.44.23-.78.61-.83.37.29.14,1.08-.32,1.27l-.15,0c2.7,1.56.6,6.92,3.54,7.7l-.15,0,2.09,1.36c.37,1-1-.14-1.13.84,2.7,1.22,1.72,3.42,3.71,4.56-1.82,2.86,3,4.61,2.35,7.38l.55-.46c.88.11,0,.76,0,1.19.45-.33.26-.83.76-.74,3,3.5,3.87,8.64,5.69,13,.7,1.57,3.66-1,3.29,1.69l-1.45.14c3.11,2.17,3.53,6.11,6.4,8.33-.37,0-.71.18-.87-.11-.47,1.11,1.29,2.3,2,1.91.19.5-.55.47-.72.95-.13.9,2,.93,1.33,1.74-.1.13-.37,0-.5-.09.64.16,1,1.93,1.73,1,.18,1.36,1.65,1.84,1.6,3,1.4-.06.58,2.17,2.2,1.46-1.61.84-.13,2.65,1,2.91-.61,0-.14.89-1,1,.48.78,1.2,1.33,1.92.72-1,2.55,3.22,2,1.31,4.26a46,46,0,0,1,5.65,5.57c-1.59.84-1.52-2.23-3.1-1.18,1.82,1.62,3.83,2,4.62,4.19.09.63-.85.1-1.21.08,1.81,1.62,2.12,4,4,5.22-.14.08-.41,0-.64-.13.26.32.25.95.93.5l-.39-.23c.7-1.16,3,.13,3.54-.13-2.37.6.52,2.06-2.59,2.62a1.13,1.13,0,0,0,1.21-.09c.07.42-.14.69-.89.66,1.13,1,1.62.14,2.27,1.29-.35.2-.61,0-1.09.16,1,.19,2,.37,2.29,1.5-.24.06-.44.33-.6,0,1.07,1.59,3.43,1.77,3.84,4-1.8.34-.12.9-1.36,1.75l1,.75.4-.76c.47.87,1.86,1.07,1.86,2l-.9-.32,1.18,1.45,0-1.19c1.17.47,1.58-1.05,1.88.29-.26-.15.49.86,0,1.75h0c.65.18,1.34.36,1.39,1.18-.31.41-1.5.71-1.71,1,1.32-.21,1.47,1.82,2.93,1.68a2.09,2.09,0,0,0-1.16.51l1.08-.17c0,.56-.15.7-.73,1,.54,1.28,1.41-1.34,1.54.48-.14-.06-.24.07-.5-.09.46,1.63,2.16,2.41,2.49,4-1.07,1.15-1-1-1.82.14,1.34,1.73,3.84,3,4.6,5l-.06-.43c2-.82-.11,1.89,1.29,2.3-.26-.15-1.18.3-.94.24.43,1.42,1.94,2.28,3.62,3.82l-.61,0c0,1,.9,2.07,1.15,3,.6,0,.79.45,1.32-.22-1.25,4,4.17,3.81,3.21,7.28-.16-.26-.78-.37-.66-.17l1.52,1.59c.71-.61.34-.53.73-1.28a1.73,1.73,0,0,1,1.55.72c-1-.52-1.27.76-1.51,1.38.21-.2.55-.24.78-.42-.85,1.8,1.7-.78,1.52,1.1l-.46.17c.5.37,1.32.5,1.52,1.1-.8.76-.74-.27-1.52.14.49.71,2.61.44,2.09,1.66-.44-.17-.72-.62-1.16-.79-.65,1.37-.32,1.3-.17,1.94v-.06l.25,1.55.11-.5c3-.48,1.55,1.64,3.86,2-2.2-.34-1,.31-2.08.83-.1.49-.14,1.17-.51,1.2,1.19.1-.08,1.38,1.64,1.5-.31.23.34.65-.58,1,.72.62.48-.52.94-.71,1.84.52.25,3.62,2.83,4.4,1.52,1.1,2.81.7,4.18,1.74-.26.78-1.45.34-1.45.34a2,2,0,0,0,1.17,2c-.38,0-.54.32-.79.76.42.51,1.44-.34,1.38.69a6,6,0,0,1-1.68.23c.7.49,1.72.77,2.42,1.28-.48.53-1.13.11-1.66.09.72.62,1.71,1.69,2.78,1.39l0-.69c.21.25-.71.61-1,.5-1.12-.23-.24-1.14.07-1.38l.51.36c1.67-1.66-1.48-1.78-1.94-2.83l1.67-.43-1.78-.31c.25-.44,1-1.06,1.46-.7.29-1.12-.88-.32-.44-1.39a.21.21,0,0,1,.26-.13l-.83-.44c.38,0,.94-.71,1-.16.1-1.73-2.25-1.37-1.43-2.47l.14,0c-1.49-1.43-1.15.45-3.14-.11l2.09-2.4-1.16.45c-.06-.2-.19-.59.27-.78-1.11-.23-.39.39-1.3.4.46-1.42-1.83-2.09-.27-3.27-1,.17-.13,1.18-1.23.6,1.65-1.32-.93-.87-.56-2.14,1.07-.31,1,.72,1.39-.55-1.85.46-.55-1.72-1.24-2.2-1.27.7-1.36-1.13-2.43-2,.46-.18-.53-2.49-.68-3.78l.22-.09c-1.38.54-1.76-.66-2.48-1.28a1.81,1.81,0,0,1,1.74-.23l-.43-.72a1.45,1.45,0,0,1-1.28-.42l1.06-.38c-.62-.93-2.26-1.28-2.36-2.9-.92.45-1.88,2.44-3.24,1.47.45-.33,1.24-.86,1.64-.63-.13-.08-.64-.17-.57-.52l1.12.06c0-.78-.85.1-1-.4.69-.39.29-.62.87-.87.13.07,0,.56.32.57a2.3,2.3,0,0,1,.26-1.94c-.37.27-.92.54-1.23.22-.62-.94.63-.81.64-1.58-.61,0-.48-.86-1.51-.28-.16-.29.29-.62.5-.89-.74-.23-1.5-2.26-2.25-1.06v.17s0,0-.09-.05h0c-2-1-1.43-3.74-2.82-5.11l.34-.2c-1-.74-1.49-2-2.63-2.29-.17-.28.22-1,.7-1.16-.7-.59-1.13-.44-1.19-1.85,1,.4.37-.56.88.51-.27-1.13.14-1.67-1.4-2.16,1.08-.16.68-1.37.15-1.68l-.23,1a3.86,3.86,0,0,1-.81-1.44l1.29-.43c.24-2.79-4.47-2.16-3-5-1.11,0,.06,1.4-1.15,1.49-.38-1,.71-2.91.55-3.2-.1-1.62-2.36-.17-2.69-1.73a1.63,1.63,0,0,1-2.27.46c-.38-1,1.06-2.12,1.73-1.74a.28.28,0,0,1,0,.45c.32.2.72.49,1-.14l-.47.13c.15-.7-.63-1.92.21-2-.79-.46-.84.1-.75.73-.09-1.51-1-1.83-1.36-3.26-.11.32-.49.78-.6.59-.53-2.06-1.23-.32-2.11-1.4.23-1,1.63-.64.4-1.53,0-1,1-.79,1.5-.7-1.43-.62-.68-2.34-.9-3l.67.38a1.89,1.89,0,0,1-.73-.8l-.62.81c-.06-.42-.22-.71.12-.91-.74,0-1.2,1.07-2.34.81.15-.69-1.26-1.11-.26-1.9.46,1.63,1-.8,1.88.3a1.07,1.07,0,0,1-.48-.87c.09-.12.25-.08.37,0,.17-1.92-1.6.1-2.4-1.32.72-.18,1-1,.7-1.16.33.58-.86.88-1.63.63-.05-1.18-.93-.77-1.15-1.27l.09.67c-.72.17-.9-.32-1.47-.84.45-.33.67.38.75,0-1.49-.06.18-2.23-1.11-2.77.15-.7,1.12-.72,1.17-1.28-1.44-.63.14-1.68-1.19-2.44-.62.82-.39.76-1.66.42l1.68,1.54-1.91-.5c.33.58,1.23.89,1.29,1.32-1-.18-.77-.24-1.3.43.78-1.5-1.62-1.12-1.32-2.51l2.06-1.17c.11-1.88-2.46-1.78-3-3.84l0,.77c-.95.24-.75-1-1.41-1.39.71-.35.75-.85,1-1.34-.49.33-.71-1.31-2.16-.67l.43-1.31c-.46-1.63-2.89-.48-3.46-2,1,0,1.1-.93,2.17-.33-.26-.46-.38-.94-.85-.67.27-.52-1.66-.72-1.26-1.52-.41,0-1.16.34-1.41-.2a.73.73,0,0,1,.34-.2c-.34.2-.93-.53-1.42.36,1.3-2.65-2.45-3.82-1.35-6.11a23.91,23.91,0,0,1-2.31-2.8c.24-.06.34-.2.37,0-.1-1.62-2.4.38-2.53-1.45.68-1.37,1,.4,1.19-.29,2.13-1.51-1.31-1.53-.56-3.25l.27.15c.33-1.17-1.89-1.27-2.43-2.55a.78.78,0,0,0,.34-.19c-1.62-.15-2.9-1.46-3.89-2.42,1.08-.16.77.25,1.53-.49-.43-.44-1.34,1-2.19.11.28-.61.27-1.6,1.16-2.25l.62.93c.94-1.22-.78-1.22-.86-1.86l.57-.25c-1-1.37-2.41-.6-3.24-2.24l-.32.4c-1.85-.08.33-1.17-1.18-1.45l1.21-1.06a16.91,16.91,0,0,1-3.35-2.11c1.35,0,2.57.88,3.61,1.28-.33-.58-1.24-1.88-2.08-1.78.26.16.77.25.69.6a3.59,3.59,0,0,1-3.19-1.82c2.76-1.35-1.07-3.34.5-5.37-2.15-1.43-1.92-4.22-3.45-6.46-1.57,2-.46-.64-2.48.74-.46-.46-.54-.69-.43-.82l.29-2.39c.38-.75.77.25,1.21-.08-.54-1.29.6-1,.7-2.14-.66.6-1.33.22-1.44-.63l-.41,1.53c-2.1-1,.93-2.48-1.17-3.5l1,.14c-.89-.63-1.85-3.18-4-3,.16-.29.62-.83,1-.55-1-2.2-4.49-3.51-4.39-5.72l.61-.15c-.37-.29-1.36-.09-1.12-.88.22-.1.6-.15.53-.34-.3-.1-1.51-.49-1.5-1.18l.83.1c-.5-2.4-3.22-2.25-4.56-3.72,1.52-.89,1.08-2.76.87-3.69l.23-.1c-1.19-2.44-3.59-3.22-5.46-5,.86-2.31-2-5-2.32-7.65-.09.49-1.22.64-1.6.35,0-.69-1.87-.78-.43-1.52l.08.2c1.14-1.19.16-2-.28-2.85l-1.9.94c1.4-3.68-4.24-5-2.55-7.55-.76-.24-1.13-.88-1.88-1.12l1-.55a11.82,11.82,0,0,0-2.14-4l.91-.06c-.52-1-3.55.41-4.15-.47l1.3-1.13c-1-1.72-.79-4.22-3.12-5.15.24-.09.69-.29.91,0-.44-.83-.86-3.72-2.69-2.25,1.29-.79-.92-1.86-2-2.45l1-.42c-1.69-.07-2,.11-3-.79,0-.34.63-.68.59-.19,0-1.17-1.31-.15-1.42-1.5l.85,0c-.45-.93-.74-.67-1.75-.74-.71-.34-.75-1.84,0-2.48-.6.19-1.6.12-1.65-.56a.76.76,0,0,1,.75-.15c-.22-1.88-2.42-1.56-2.08-3.15.31-.21.43-.37.47-.51a8.77,8.77,0,0,1,1.06,2.14c.89-.52.48-1.57,2.15-1.53-1.12-.37-3.34-.84-3.48-2a1.45,1.45,0,0,1,.24-.31l.15,0c0-.27-.23-.41-.49-.51a2.27,2.27,0,0,0-.18-.93c.66-.54-.26-1.33-.5-1.83-1,.61-1.16-.11-1.61.95,0-.12.16,0,.39.32.07,0,.14.13.22.14l-.1,0c.21.3.47.69.76,1.15-.71-.09-1.36-.24-1.13-1.08-.77.12-1.57.22-2,.25,1-1.45,1-3.14,1.69-3.81-1.4-1.14-2.38-3.22-4.74-3.07-.48-.28.24-.78.43-1.11.33.13.47.44.8.41-1-.55-1.62-2.35-3-1.8,0-1.38,1.52-.1.46-1.42l.51,0c.37-4-6-2.69-5.19-7.35,0,.31,0,.46-.23.63-.95-4.25-5.41-6.73-5.65-11.33-.23-1.22-1.1-.85-2.08-1.09l.91-.83-1.81-.34c-1.75-1,1-4.07-1.72-5l-.56.65c-.27-.75-1.67-1.89-.8-2.25-.17,0-.86.21-.65-.27l.54-.34-1.91-1.11c-.36-1.52,2.28-1.07,1.28-3-.62-.57-2.75-1-3-.57a1.07,1.07,0,0,1-.45,1.26l-.66-.47c-1.67.83-3.6,1.3-3.81,3.53l1.63.51-.58.81-.58-.89c-.43.95.41.9,1.07,1a1.59,1.59,0,0,0-.59,1l2.17.17c-.56.49-1.53.25-1.46,1.17,1,.08,1.13-1.31,2.08-.75-.42,1-1.1,1.14-.12,1.39a.91.91,0,0,1-1,.22c.82.25,1.06,1.32,2.08,1.1-.58,1.07,1.31,1.7-.24,2.54a3.26,3.26,0,0,1,2.12.72c-2.36.15,1,1.93-1.1,2.84,2-.29,2.16,2,3.77,2.68-.17,0-.51,0-.48-.13.26.76-.12,1.24-.18,1.86,1.41-.71,2.33.16,3.5.24-.82,1.59-1.88.43-3,1.42,1.07-.68,1.94.8,2.68,0-.43,1.11-.07.77-1,1.76,1.76-.88.63.42,2,.33-.29,1.41-1.44,1.17-.34,1.87C1267.69,948.49,1266.57,948,1266.57,948Zm17,22.18h0l-.34-.46Zm1.2,2a6.48,6.48,0,0,0-.47-.89c.29-.27.68-.4.78-.19C1284.76,971.08,1284.85,971.66,1284.74,972.13Zm4.22-8.2c.32.24.2.46,0,.62a3.48,3.48,0,0,0-.44-.49l-.14,0A2.42,2.42,0,0,1,1289,963.93Z"/><path class="cls-5" d="M1287.35,964.11s-.1,0-.15-.09a2.33,2.33,0,0,0-.1.32l.37-.07Z"/><path class="cls-5" d="M1393,1147v0a.37.37,0,0,1-.08.17A.62.62,0,0,1,1393,1147Z"/><polygon class="cls-5" points="1299.19 1000.95 1299.43 1000.8 1299.12 1000.75 1299.19 1000.95"/><path class="cls-5" d="M1396.14,1160a.58.58,0,0,0-.16.29A.69.69,0,0,0,1396.14,1160Z"/><path class="cls-5" d="M1398.74,1164.91l0,.88A3.55,3.55,0,0,0,1398.74,1164.91Z"/><path class="cls-5" d="M1400.42,1168.87a3.09,3.09,0,0,0,.45-.17h0Z"/><path class="cls-5" d="M1364.93,1111.13a.47.47,0,0,0-.13-.11C1364.42,1110.8,1364.63,1111,1364.93,1111.13Z"/><path class="cls-5" d="M1377.42,1127.18a3.33,3.33,0,0,1-.79-.29C1376.74,1127.25,1376.86,1127.5,1377.42,1127.18Z"/><path class="cls-5" d="M1352.35,1092.41h0a.47.47,0,0,1-.07-.12Z"/><path class="cls-5" d="M1376.17,1126.08a.83.83,0,0,0,.46.81A1.18,1.18,0,0,0,1376.17,1126.08Z"/><path class="cls-5" d="M1409.34,1185.05l.06.2a.56.56,0,0,1,.17-.07Z"/><path class="cls-5" d="M1409.57,1185.18l.23.13C1409.75,1185.22,1409.69,1185.14,1409.57,1185.18Z"/><path class="cls-5" d="M1410.29,1185.58l-.49-.27C1409.88,1185.45,1410,1185.65,1410.29,1185.58Z"/><path class="cls-5" d="M1406.93,1179.92l-.39.15A1,1,0,0,0,1406.93,1179.92Z"/><path class="cls-5" d="M1406,1178.51c.12.39-.23,1.32.28,1.68l.3-.12C1405.88,1180.15,1406.75,1178.49,1406,1178.51Z"/><path class="cls-5" d="M1406.67,1169.78l.45,1.41c.25-.44.58-1,1-.51C1408.32,1168.46,1407.48,1171.49,1406.67,1169.78Z"/><path class="cls-5" d="M1405,1165.62c.56.57.54-.32.77-.41C1405.14,1165,1405,1164.93,1405,1165.62Z"/><path class="cls-5" d="M1388.65,1137.87l.92-.45C1389.14,1137,1389.22,1137.62,1388.65,1137.87Z"/><polygon class="cls-5" points="1380.97 1135.25 1380.71 1136.07 1381.66 1135.83 1380.97 1135.25"/><polygon class="cls-5" points="1385.41 1128.42 1385.66 1128.57 1384.84 1127.9 1385.41 1128.42"/><path class="cls-5" d="M1357.69,1082l-1,.79C1357.09,1083,1358.36,1082.39,1357.69,1082Z"/><path class="cls-5" d="M1344.75,1062.54c.42-.54.43-1.31-.31-1.35C1344.64,1061.69,1344.48,1062.39,1344.75,1062.54Z"/><polygon class="cls-5" points="1311.04 1001.16 1311.64 1001.35 1310.89 1000.77 1311.04 1001.16"/></g><path class="cls-6" d="M450,1661.84c-2.05,2.08,19.15,27.39,41,48.25a336.22,336.22,0,0,0,58.19,44.44h0c9.93,6,24.59,14.81,42.74,25,11.55,6.49,18,10.08,25,13.58a270.57,270.57,0,0,0,59.94,21.22s73.37,18.23,150,2.56a322.92,322.92,0,0,0,35.88-9.52c.89-.3,15.2-5,28.56-10.91,4.3-1.89,75.93-33.86,71.58-52.54-2-8.8-18.67-4.84-52.8-24.55-11.54-6.68-20.27-13.26-27.83-22.83a66.5,66.5,0,0,1-13.75-58.44c2.7-12.66,8.92-24.66,12.09-30.75.85-1.62,1.35-2.5,1.33-2.52s-8,18.67-17.66,34.61c-10.39,17.13-20.92,28.41-28.79,36.74a271,271,0,0,1-63.43,49.8,254.48,254.48,0,0,1-85.31,29c-55.34,8.32-98.17-4-108.28-7.11C498.13,1723.25,453.18,1658.65,450,1661.84Z"/><path class="cls-6" d="M1092.41,451.41c0-3-33.53-6.48-64.42-6.23A343.43,343.43,0,0,0,953.67,454h0c-11.6,2.62-28.59,6.62-49.16,12-13.1,3.45-20.35,5.37-28,7.8a277.49,277.49,0,0,0-59.09,27.07s-66.82,38.8-111.88,104.77A328.3,328.3,0,0,0,686,638.13c-.45.85-7.59,14.51-13.21,28.33-1.81,4.44-31.65,78.85-15.17,89.47,7.77,5,17.14-9.73,56.21-19.53,13.23-3.32,24.31-4.7,36.66-3a68,68,0,0,1,51.66,33.12c7,11.21,11,24.44,13,31.17.53,1.79.79,2.79.82,2.79s-7.41-19.39-11.66-38c-4.56-20-4.85-35.73-5-47.44a276.56,276.56,0,0,1,11.14-81.67,260.09,260.09,0,0,1,42-82c34.7-45.47,74.91-66.88,84.53-71.8C1013.44,440.55,1092.38,456,1092.41,451.41Z"/><path class="cls-6" d="M1687.89,1538.38c2.89.46,11.28-31.67,15.61-61.76A338.54,338.54,0,0,0,1706,1403h0c-.84-11.68-2.21-28.8-4.44-49.62-1.42-13.25-2.2-20.59-3.44-28.4a272.5,272.5,0,0,0-17.58-61.5s-27.86-70.77-85.37-124.39a322.88,322.88,0,0,0-28.73-23.85c-.76-.56-13-9.53-25.6-17-4.06-2.41-72-42.47-84.81-28-6,6.81,6.93,18.12,10.67,57.59,1.27,13.36,1,24.35-2.47,36.12a66.81,66.81,0,0,1-39.87,45.36c-11.95,5.17-25.42,7.08-32.26,8-1.82.25-2.83.36-2.83.38s20-4.33,38.65-5.71c20.11-1.48,35.49.57,46.91,2.16a272.49,272.49,0,0,1,77.82,22.94,255.8,255.8,0,0,1,73.51,53c39.11,40.5,54,82.8,57.34,92.89C1710.16,1463.14,1683.44,1537.67,1687.89,1538.38Z"/></g></svg>