<?xml version="1.0" encoding="UTF-8"?>
<svg xmlns="http://www.w3.org/2000/svg" xmlns:xlink="http://www.w3.org/1999/xlink" width="24px" height="24px" viewBox="0 0 24 24" version="1.1">
<g id="surface1">
<path style=" stroke:none;fill-rule:nonzero;fill:rgb(31.372549%,55.686275%,96.862745%);fill-opacity:1;" d="M 11.992188 -0.015625 C 12.039062 -0.015625 12.082031 -0.015625 12.132812 -0.015625 C 14.917969 -0.0117188 17.523438 0.96875 19.6875 2.71875 C 19.632812 2.886719 19.574219 2.921875 19.4375 3.03125 C 19.394531 3.0625 19.351562 3.09375 19.308594 3.128906 C 19.261719 3.164062 19.21875 3.199219 19.171875 3.234375 C 19.085938 3.304688 19 3.371094 18.917969 3.441406 C 18.875 3.476562 18.832031 3.511719 18.785156 3.550781 C 18.742188 3.585938 18.699219 3.621094 18.65625 3.65625 C 18.570312 3.726562 18.484375 3.796875 18.398438 3.867188 C 18.355469 3.902344 18.3125 3.9375 18.269531 3.972656 C 16.851562 5.132812 16.851562 5.132812 16.722656 5.238281 C 16.632812 5.3125 16.542969 5.382812 16.453125 5.457031 C 16.410156 5.496094 16.363281 5.53125 16.320312 5.570312 C 16.277344 5.601562 16.238281 5.636719 16.195312 5.667969 C 16.136719 5.71875 16.136719 5.71875 16.078125 5.765625 C 16.039062 5.800781 16 5.835938 15.960938 5.875 C 15.84375 5.953125 15.84375 5.953125 15.730469 5.953125 C 15.578125 5.894531 15.441406 5.816406 15.296875 5.734375 C 13.671875 4.839844 11.738281 4.71875 9.96875 5.210938 C 8.179688 5.75 6.683594 6.980469 5.777344 8.609375 C 4.859375 10.324219 4.691406 12.296875 5.25 14.15625 C 5.863281 16.011719 7.164062 17.5 8.90625 18.378906 C 10.578125 19.1875 12.519531 19.292969 14.277344 18.710938 C 15.65625 18.21875 16.863281 17.363281 17.71875 16.171875 C 17.738281 16.144531 17.757812 16.117188 17.78125 16.085938 C 18.125 15.609375 18.421875 15.09375 18.609375 14.53125 C 16.503906 14.53125 14.402344 14.53125 12.234375 14.53125 C 12.234375 12.953125 12.234375 11.375 12.234375 9.75 C 16.054688 9.75 19.875 9.75 23.8125 9.75 C 23.921875 10.324219 24.007812 10.824219 24.007812 11.398438 C 24.011719 11.441406 24.011719 11.484375 24.011719 11.53125 C 24.019531 13.382812 24.019531 13.382812 23.859375 14.15625 C 23.84375 14.226562 23.84375 14.226562 23.832031 14.292969 C 23.355469 16.5625 22.328125 18.625 20.71875 20.296875 C 20.6875 20.328125 20.660156 20.359375 20.628906 20.390625 C 20.199219 20.835938 19.765625 21.246094 19.265625 21.609375 C 19.210938 21.648438 19.15625 21.691406 19.105469 21.730469 C 18.71875 22.011719 18.320312 22.265625 17.90625 22.5 C 17.875 22.519531 17.839844 22.539062 17.804688 22.558594 C 16.578125 23.25 15.222656 23.695312 13.828125 23.90625 C 13.773438 23.914062 13.722656 23.921875 13.667969 23.929688 C 13.128906 24.007812 12.59375 24.015625 12.046875 24.015625 C 12 24.015625 11.953125 24.015625 11.90625 24.015625 C 11.210938 24.011719 10.527344 23.996094 9.84375 23.859375 C 9.796875 23.851562 9.75 23.839844 9.703125 23.832031 C 7.675781 23.410156 5.789062 22.542969 4.21875 21.1875 C 4.183594 21.15625 4.148438 21.128906 4.113281 21.097656 C 3.480469 20.542969 2.886719 19.945312 2.390625 19.265625 C 2.351562 19.210938 2.308594 19.15625 2.269531 19.105469 C 1.988281 18.71875 1.734375 18.320312 1.5 17.90625 C 1.480469 17.875 1.460938 17.839844 1.441406 17.804688 C 0.847656 16.75 0.453125 15.613281 0.199219 14.429688 C 0.191406 14.386719 0.179688 14.34375 0.171875 14.296875 C 0.015625 13.539062 -0.0195312 12.789062 -0.015625 12.015625 C -0.015625 11.96875 -0.015625 11.921875 -0.015625 11.871094 C -0.0117188 11.1875 0 10.515625 0.140625 9.84375 C 0.148438 9.796875 0.160156 9.753906 0.167969 9.707031 C 0.53125 7.976562 1.203125 6.351562 2.25 4.921875 C 2.269531 4.894531 2.289062 4.867188 2.308594 4.839844 C 2.605469 4.433594 2.933594 4.0625 3.28125 3.703125 C 3.328125 3.65625 3.328125 3.65625 3.375 3.605469 C 3.800781 3.164062 4.238281 2.753906 4.734375 2.390625 C 4.789062 2.351562 4.84375 2.308594 4.894531 2.269531 C 5.28125 1.988281 5.679688 1.734375 6.09375 1.5 C 6.125 1.480469 6.160156 1.460938 6.195312 1.441406 C 7.417969 0.753906 8.78125 0.296875 10.171875 0.09375 C 10.226562 0.0859375 10.285156 0.078125 10.34375 0.0703125 C 10.890625 -0.0078125 11.4375 -0.0195312 11.992188 -0.015625 Z M 11.992188 -0.015625 "/>
<path style=" stroke:none;fill-rule:nonzero;fill:rgb(94.509804%,26.27451%,20.784314%);fill-opacity:1;" d="M 11.992188 -0.015625 C 12.039062 -0.015625 12.082031 -0.015625 12.132812 -0.015625 C 14.917969 -0.0117188 17.523438 0.96875 19.6875 2.71875 C 19.632812 2.886719 19.574219 2.921875 19.4375 3.03125 C 19.394531 3.0625 19.351562 3.09375 19.308594 3.128906 C 19.261719 3.164062 19.21875 3.199219 19.171875 3.234375 C 19.085938 3.304688 19 3.371094 18.917969 3.441406 C 18.875 3.476562 18.832031 3.511719 18.785156 3.550781 C 18.742188 3.585938 18.699219 3.621094 18.65625 3.65625 C 18.570312 3.726562 18.484375 3.796875 18.398438 3.867188 C 18.355469 3.902344 18.3125 3.9375 18.269531 3.972656 C 16.851562 5.132812 16.851562 5.132812 16.722656 5.238281 C 16.632812 5.3125 16.542969 5.382812 16.453125 5.457031 C 16.410156 5.496094 16.363281 5.53125 16.320312 5.570312 C 16.277344 5.601562 16.238281 5.636719 16.195312 5.667969 C 16.136719 5.71875 16.136719 5.71875 16.078125 5.765625 C 16.039062 5.800781 16 5.835938 15.960938 5.875 C 15.84375 5.953125 15.84375 5.953125 15.730469 5.953125 C 15.578125 5.894531 15.441406 5.816406 15.296875 5.734375 C 13.671875 4.839844 11.738281 4.71875 9.96875 5.210938 C 8.179688 5.75 6.683594 6.980469 5.777344 8.609375 C 4.832031 10.375 4.757812 12.246094 5.25 14.15625 C 5.28125 14.28125 5.3125 14.40625 5.34375 14.53125 C 5.304688 14.5625 5.261719 14.59375 5.222656 14.625 C 4.90625 14.871094 4.597656 15.121094 4.292969 15.378906 C 4.113281 15.535156 3.925781 15.683594 3.738281 15.835938 C 3.304688 16.179688 2.875 16.535156 2.445312 16.886719 C 2.394531 16.929688 2.394531 16.929688 2.34375 16.96875 C 2.199219 17.089844 2.050781 17.214844 1.90625 17.335938 C 1.859375 17.375 1.8125 17.414062 1.765625 17.453125 C 1.707031 17.5 1.707031 17.5 1.648438 17.550781 C 1.546875 17.625 1.480469 17.644531 1.359375 17.671875 C 0.691406 16.347656 0.234375 14.972656 0.046875 13.5 C 0.0429688 13.46875 0.0390625 13.4375 0.0351562 13.40625 C 0 13.136719 -0.0078125 12.871094 -0.0078125 12.601562 C -0.0117188 12.535156 -0.0117188 12.535156 -0.0117188 12.46875 C -0.0195312 10.617188 -0.0195312 10.617188 0.140625 9.84375 C 0.148438 9.796875 0.160156 9.753906 0.167969 9.707031 C 0.53125 7.976562 1.203125 6.351562 2.25 4.921875 C 2.269531 4.894531 2.289062 4.867188 2.308594 4.839844 C 2.605469 4.433594 2.933594 4.0625 3.28125 3.703125 C 3.328125 3.65625 3.328125 3.65625 3.375 3.605469 C 3.800781 3.164062 4.238281 2.753906 4.734375 2.390625 C 4.789062 2.351562 4.84375 2.308594 4.894531 2.269531 C 5.28125 1.988281 5.679688 1.734375 6.09375 1.5 C 6.125 1.480469 6.160156 1.460938 6.195312 1.441406 C 7.417969 0.753906 8.78125 0.296875 10.171875 0.09375 C 10.226562 0.0859375 10.285156 0.078125 10.34375 0.0703125 C 10.890625 -0.0078125 11.4375 -0.0195312 11.992188 -0.015625 Z M 11.992188 -0.015625 "/>
<path style=" stroke:none;fill-rule:nonzero;fill:rgb(15.686275%,70.588235%,27.45098%);fill-opacity:1;" d="M 5.390625 14.53125 C 5.410156 14.578125 5.429688 14.625 5.449219 14.671875 C 6.179688 16.421875 7.539062 17.832031 9.304688 18.558594 C 11.171875 19.292969 13.15625 19.21875 14.988281 18.425781 C 15.136719 18.351562 15.28125 18.265625 15.421875 18.175781 C 15.515625 18.140625 15.515625 18.140625 15.613281 18.175781 C 15.722656 18.246094 15.820312 18.320312 15.917969 18.402344 C 15.980469 18.453125 15.980469 18.453125 16.042969 18.503906 C 16.105469 18.554688 16.105469 18.554688 16.171875 18.609375 C 16.214844 18.644531 16.253906 18.679688 16.300781 18.714844 C 16.429688 18.820312 16.558594 18.925781 16.6875 19.03125 C 16.773438 19.101562 16.859375 19.171875 16.945312 19.242188 C 17.71875 19.875 17.71875 19.875 18.492188 20.507812 C 18.554688 20.558594 18.554688 20.558594 18.621094 20.613281 C 18.710938 20.6875 18.800781 20.757812 18.890625 20.832031 C 18.933594 20.871094 18.980469 20.90625 19.023438 20.945312 C 19.066406 20.976562 19.105469 21.011719 19.148438 21.042969 C 19.265625 21.140625 19.382812 21.234375 19.5 21.328125 C 19.4375 21.472656 19.378906 21.550781 19.246094 21.640625 C 19.214844 21.664062 19.183594 21.6875 19.152344 21.710938 C 19.117188 21.734375 19.082031 21.757812 19.046875 21.78125 C 19.011719 21.808594 18.972656 21.832031 18.9375 21.859375 C 18.601562 22.085938 18.261719 22.300781 17.90625 22.5 C 17.875 22.519531 17.839844 22.539062 17.804688 22.558594 C 16.578125 23.25 15.222656 23.695312 13.828125 23.90625 C 13.773438 23.914062 13.722656 23.921875 13.667969 23.929688 C 13.128906 24.007812 12.59375 24.015625 12.046875 24.015625 C 12 24.015625 11.953125 24.015625 11.90625 24.015625 C 11.210938 24.011719 10.527344 23.996094 9.84375 23.859375 C 9.796875 23.851562 9.75 23.839844 9.703125 23.832031 C 7.675781 23.410156 5.789062 22.542969 4.21875 21.1875 C 4.167969 21.144531 4.167969 21.144531 4.113281 21.097656 C 3.480469 20.542969 2.886719 19.945312 2.390625 19.265625 C 2.351562 19.210938 2.308594 19.15625 2.269531 19.105469 C 2.0625 18.820312 1.867188 18.53125 1.6875 18.230469 C 1.671875 18.203125 1.652344 18.171875 1.632812 18.144531 C 1.542969 17.992188 1.46875 17.839844 1.40625 17.671875 C 1.464844 17.625 1.464844 17.625 1.527344 17.578125 C 1.820312 17.351562 2.109375 17.117188 2.390625 16.875 C 2.632812 16.664062 2.878906 16.464844 3.132812 16.269531 C 3.320312 16.125 3.5 15.972656 3.679688 15.820312 C 3.914062 15.621094 4.152344 15.429688 4.394531 15.242188 C 4.535156 15.128906 4.675781 15.019531 4.8125 14.898438 C 4.855469 14.863281 4.855469 14.863281 4.898438 14.828125 C 4.949219 14.78125 5.003906 14.734375 5.054688 14.6875 C 5.234375 14.53125 5.234375 14.53125 5.390625 14.53125 Z M 5.390625 14.53125 "/>
<path style=" stroke:none;fill-rule:nonzero;fill:rgb(98.039216%,72.941176%,0%);fill-opacity:1;" d="M 1.3125 6.46875 C 1.617188 6.691406 1.910156 6.929688 2.203125 7.171875 C 2.289062 7.242188 2.375 7.3125 2.460938 7.382812 C 3.234375 8.015625 3.234375 8.015625 4.007812 8.648438 C 4.050781 8.683594 4.09375 8.71875 4.136719 8.753906 C 4.222656 8.824219 4.308594 8.894531 4.394531 8.964844 C 4.4375 9 4.480469 9.035156 4.527344 9.074219 C 4.566406 9.109375 4.609375 9.144531 4.652344 9.179688 C 4.738281 9.25 4.828125 9.316406 4.917969 9.378906 C 4.984375 9.425781 4.984375 9.425781 5.050781 9.476562 C 5.109375 9.515625 5.109375 9.515625 5.171875 9.558594 C 5.25 9.65625 5.25 9.65625 5.246094 9.808594 C 5.230469 9.867188 5.21875 9.925781 5.203125 9.984375 C 5.195312 10.015625 5.191406 10.046875 5.183594 10.078125 C 5.167969 10.140625 5.152344 10.207031 5.136719 10.269531 C 4.820312 11.601562 4.910156 12.839844 5.25 14.15625 C 5.28125 14.28125 5.3125 14.40625 5.34375 14.53125 C 5.304688 14.5625 5.261719 14.59375 5.222656 14.625 C 4.90625 14.871094 4.597656 15.121094 4.292969 15.378906 C 4.113281 15.535156 3.925781 15.683594 3.738281 15.835938 C 3.304688 16.179688 2.875 16.535156 2.445312 16.886719 C 2.394531 16.929688 2.394531 16.929688 2.34375 16.96875 C 2.199219 17.089844 2.050781 17.214844 1.90625 17.335938 C 1.859375 17.375 1.8125 17.414062 1.765625 17.453125 C 1.707031 17.5 1.707031 17.5 1.648438 17.550781 C 1.546875 17.625 1.480469 17.644531 1.359375 17.671875 C 0.691406 16.347656 0.234375 14.972656 0.046875 13.5 C 0.0390625 13.453125 0.0390625 13.453125 0.0351562 13.40625 C 0 13.136719 -0.0078125 12.871094 -0.0078125 12.601562 C -0.0117188 12.558594 -0.0117188 12.515625 -0.0117188 12.46875 C -0.0195312 10.617188 -0.0195312 10.617188 0.140625 9.84375 C 0.148438 9.796875 0.160156 9.753906 0.167969 9.707031 C 0.394531 8.628906 0.695312 7.398438 1.3125 6.46875 Z M 1.3125 6.46875 "/>
</g>
</svg>
